<svg version="1.1" xmlns="http://www.w3.org/2000/svg" xmlns:xlink="http://www.w3.org/1999/xlink" x="0px" y="0px" width="64px" height="64px" viewBox="0 0 64 64" enable-background="new 0 0 64 64" xml:space="preserve">
<path fill-rule="evenodd" clip-rule="evenodd" fill="#000000" d="M31.998,2C15.433,2,2,15.431,2,32.002
c0,13.253,8.595,24.498,20.517,28.465c1.5,0.275,2.048-0.651,2.048-1.446c0-0.712-0.026-2.599-0.041-5.102
c-8.345,1.813-10.106-4.021-10.106-4.021c-1.364-3.466-3.331-4.388-3.331-4.388c-2.724-1.861,0.206-1.824,0.206-1.824
c3.011,0.212,4.595,3.092,4.595,3.092c2.676,4.584,7.021,3.261,8.731,2.493c0.273-1.939,1.048-3.261,1.905-4.011
c-6.662-0.757-13.665-3.331-13.665-14.827c0-3.275,1.169-5.953,3.088-8.05c-0.308-0.759-1.338-3.809,0.294-7.939
c0,0,2.519-0.807,8.25,3.075c2.393-0.665,4.959-0.998,7.511-1.01c2.548,0.012,5.114,0.344,7.511,1.01
c5.727-3.882,8.242-3.075,8.242-3.075c1.637,4.13,0.607,7.18,0.299,7.939c1.923,2.097,3.084,4.775,3.084,8.05
c0,11.525-7.014,14.061-13.697,14.804c1.077,0.926,2.037,2.757,2.037,5.556c0,4.011-0.037,7.246-0.037,8.23
c0,0.802,0.54,1.736,2.063,1.443C53.412,56.488,62,45.251,62,32.002C62,15.431,48.567,2,31.998,2z"/>
</svg>
